<?xml version="1.0" standalone="no"?>
<!DOCTYPE svg PUBLIC "-//W3C//DTD SVG 20010904//EN"
 "http://www.w3.org/TR/2001/REC-SVG-20010904/DTD/svg10.dtd">
<svg version="1.0" xmlns="http://www.w3.org/2000/svg"
 width="2048.000000pt" height="2048.000000pt" viewBox="0 0 2048.000000 2048.000000"
 preserveAspectRatio="xMidYMid meet">

<g transform="translate(0.000000,2048.000000) scale(0.100000,-0.100000)"
fill="#000000" stroke="none">
<path d="M0 10240 l0 -10240 10240 0 10240 0 0 10240 0 10240 -10240 0 -10240
0 0 -10240z m4130 3420 c-10 -36 -61 -213 -115 -395 -153 -522 -388 -1325
-631 -2160 -124 -423 -227 -777 -230 -787 -4 -15 2 -15 80 2 177 39 323 124
453 263 123 132 209 296 348 667 120 318 249 490 440 584 96 48 179 66 311 66
195 0 337 -52 451 -166 217 -219 231 -620 30 -865 -62 -75 -150 -133 -253
-165 -76 -24 -96 -26 -208 -22 -119 4 -127 5 -200 42 -90 44 -149 100 -184
176 -21 44 -27 74 -30 153 -4 87 -1 109 23 184 16 48 48 116 75 157 57 87 205
229 288 276 34 19 60 39 59 44 -2 6 -16 19 -31 30 -59 45 -220 16 -328 -57
-119 -81 -187 -194 -332 -542 -96 -231 -196 -429 -276 -549 -106 -159 -216
-246 -388 -311 l-84 -32 119 -7 c135 -7 322 -37 433 -67 307 -86 490 -241 562
-476 17 -55 21 -94 21 -208 0 -132 -3 -158 -66 -470 -84 -422 -87 -466 -38
-516 25 -25 37 -29 83 -29 90 1 153 41 239 155 60 80 117 203 219 469 l95 250
63 3 c39 2 62 -1 62 -8 0 -11 -113 -344 -173 -509 -125 -344 -328 -554 -632
-652 -172 -55 -450 -63 -596 -16 -76 25 -166 77 -206 120 -42 45 -91 139 -109
211 -22 85 -24 277 -5 372 7 33 46 212 87 398 84 383 96 480 70 592 -33 142
-125 228 -302 285 -96 31 -202 52 -208 41 -2 -3 -47 -154 -101 -336 -53 -181
-116 -397 -140 -480 -76 -259 -191 -651 -260 -890 -37 -126 -71 -234 -75 -238
-4 -4 -223 -8 -486 -7 l-479 0 3 23 c1 12 50 182 108 377 174 584 286 964 404
1360 61 206 147 494 190 640 237 798 315 1061 484 1630 101 344 190 653 197
687 14 78 8 137 -20 196 -42 86 -145 130 -336 143 -58 4 -105 9 -104 13 0 3
10 35 22 71 l22 65 55 2 c606 25 981 87 1415 236 72 24 131 43 132 43 1 -1 -7
-30 -17 -66z m3703 -1792 c132 -62 205 -159 236 -315 l18 -87 43 157 c24 86
46 161 50 167 4 7 82 14 205 20 287 14 479 35 697 77 49 9 90 14 93 11 3 -3
-20 -90 -51 -194 -71 -243 -289 -983 -609 -2074 -140 -476 -259 -896 -265
-933 -16 -105 5 -182 57 -206 38 -17 120 -13 161 8 93 48 179 155 251 313 20
46 75 184 121 308 46 124 85 227 87 229 1 2 28 5 58 6 39 2 58 -1 61 -10 7
-18 -169 -530 -221 -641 -127 -273 -315 -443 -580 -524 -106 -33 -193 -43
-315 -37 -193 10 -318 55 -415 152 -67 67 -102 129 -127 227 -18 72 -20 102
-15 228 4 92 13 178 26 234 12 50 21 92 21 95 0 4 -32 -55 -71 -129 -191 -366
-415 -607 -673 -725 -140 -64 -220 -80 -401 -80 -187 0 -263 15 -393 78 -123
59 -213 151 -280 288 -83 169 -108 314 -99 564 18 461 165 941 442 1440 181
327 373 583 625 835 297 297 563 460 865 531 60 14 112 18 210 16 118 -2 136
-5 188 -29z m2821 12 c201 -51 332 -177 415 -400 56 -150 56 -149 316 -2100
41 -311 76 -572 78 -579 2 -14 119 158 234 344 196 317 388 710 510 1045 34
95 103 325 103 345 0 6 -26 26 -57 44 -210 125 -401 318 -491 496 -61 122 -77
195 -77 350 1 121 4 148 23 195 50 126 127 206 239 252 51 20 76 23 193 23
127 0 139 -2 195 -28 200 -93 285 -331 256 -717 -24 -326 -101 -642 -251
-1019 -238 -602 -586 -1211 -983 -1719 -270 -346 -664 -727 -1001 -969 -291
-209 -676 -393 -977 -469 -129 -32 -317 -43 -423 -24 -138 24 -251 101 -303
208 -26 52 -28 67 -28 167 0 104 2 114 32 176 123 250 460 321 767 162 114
-58 218 -149 333 -290 42 -51 78 -93 80 -93 3 0 53 25 111 55 133 68 291 167
424 266 112 83 358 295 358 309 0 7 -95 593 -420 2585 -66 407 -129 776 -140
822 -33 141 -58 184 -118 210 -81 34 -161 -33 -242 -202 -39 -80 -151 -371
-231 -597 l-13 -38 -63 0 c-35 0 -63 4 -63 9 0 23 186 555 225 643 136 309
329 485 597 543 99 21 299 19 392 -5z m4376 -16 c77 -37 151 -108 185 -179 14
-28 33 -88 43 -133 l18 -83 43 154 c23 84 46 159 50 166 6 9 66 15 207 22 240
10 439 31 637 65 81 15 150 25 152 22 3 -3 -583 -2007 -850 -2908 -69 -232
-88 -322 -81 -382 10 -95 46 -128 137 -128 87 0 170 58 248 176 68 102 103
178 206 454 48 129 92 238 97 241 15 10 111 4 115 -7 4 -13 -168 -515 -208
-608 -125 -285 -307 -458 -577 -550 -190 -65 -419 -61 -606 10 -108 42 -223
169 -261 289 -42 135 -34 374 21 580 3 11 -24 -34 -59 -100 -83 -157 -98 -182
-178 -296 -201 -286 -434 -452 -714 -510 -129 -27 -317 -22 -445 11 -256 66
-419 243 -491 533 -41 165 -36 460 12 728 167 931 867 1971 1571 2332 190 97
347 137 533 134 123 -2 134 -4 195 -33z m2321 -2674 c181 -34 306 -163 328
-338 24 -191 -46 -371 -202 -518 -169 -160 -399 -226 -620 -179 -128 27 -223
100 -275 213 -22 48 -27 74 -30 168 -7 197 46 334 182 470 92 91 186 145 308
175 82 20 228 24 309 9z m-15141 -2677 c0 -9 -5 -45 -11 -80 -11 -63 -11 -63
-45 -63 -19 0 -34 -4 -34 -9 0 -13 -79 -512 -85 -538 -5 -21 -2 -23 31 -23 33
0 36 -2 30 -23 -3 -13 -8 -49 -12 -80 l-7 -57 -165 0 -164 0 5 29 c3 15 9 51
13 80 6 50 7 51 39 51 39 0 32 -27 80 280 19 124 37 240 40 258 6 31 4 32 -26
32 l-32 0 7 57 c13 113 -4 103 177 103 142 0 159 -2 159 -17z m377 -113 c40
-69 114 -198 165 -287 51 -89 94 -161 95 -159 2 2 93 561 93 572 0 2 43 4 95
4 52 0 95 -3 95 -7 0 -11 -130 -833 -136 -861 -4 -22 -8 -23 -96 -20 l-92 3
-133 230 c-73 127 -147 254 -164 284 -17 29 -32 51 -34 49 -2 -2 -22 -121 -45
-263 -22 -143 -43 -270 -45 -282 -5 -22 -10 -23 -100 -23 l-94 0 4 28 c7 38
135 852 135 858 0 3 41 3 92 2 l92 -3 73 -125z m1139 115 c76 -23 135 -72 174
-146 30 -57 34 -73 38 -164 5 -119 -11 -194 -65 -305 -44 -92 -134 -185 -219
-226 l-59 -29 -242 -3 c-134 -2 -243 -2 -243 0 0 5 128 812 135 856 l6 32 213
0 c161 0 224 -4 262 -15z m564 11 c0 -3 -20 -130 -44 -284 -46 -289 -47 -320
-12 -373 15 -25 39 -40 80 -53 53 -17 157 48 190 119 10 19 35 147 56 283 22
136 42 262 45 280 l6 32 94 0 c52 0 95 -3 95 -7 0 -5 -22 -144 -49 -310 -54
-334 -62 -360 -144 -449 -58 -64 -132 -108 -217 -130 -192 -49 -380 84 -380
270 0 47 41 334 85 594 l6 32 94 0 c52 0 95 -2 95 -4z m920 -196 c62 -110 117
-200 121 -200 4 0 86 90 184 200 l177 200 89 0 c49 0 89 -4 89 -9 0 -14 -129
-831 -135 -858 -5 -22 -10 -23 -101 -23 l-96 0 6 28 c13 61 86 536 84 542 -2
4 -59 -58 -128 -137 l-125 -143 -76 0 -76 0 -73 124 c-39 69 -78 132 -84 142
-11 14 -17 -6 -36 -132 -13 -82 -33 -210 -45 -284 l-21 -135 -98 -3 -98 -3 6
28 c6 27 136 850 136 859 0 2 42 4 93 4 l92 0 115 -200z m1337 183 c-3 -10 -8
-36 -11 -58 -4 -22 -9 -52 -12 -67 l-5 -28 -182 -2 -181 -3 -8 -45 c-4 -25
-10 -60 -13 -77 l-6 -33 161 0 161 0 -7 -47 c-3 -27 -9 -66 -13 -88 l-7 -40
-161 -3 -161 -2 -10 -63 c-6 -34 -14 -81 -17 -104 l-7 -43 181 0 c109 0 181
-4 181 -10 0 -5 -5 -43 -11 -85 l-11 -75 -280 0 -279 0 6 33 c3 17 32 203 65
412 33 209 62 395 65 413 l6 32 280 0 c262 0 280 -1 276 -17z m464 -268 c90
-157 167 -285 170 -285 3 0 25 125 48 278 24 152 47 281 51 285 4 4 47 6 97 5
l89 -3 -67 -425 c-38 -234 -68 -433 -69 -442 0 -16 -11 -18 -93 -18 l-93 0
-164 285 c-91 156 -168 281 -171 277 -5 -6 -90 -532 -89 -554 0 -5 -43 -8 -95
-8 -69 0 -95 3 -95 13 0 16 130 848 135 865 3 8 31 12 93 12 l89 0 164 -285z
m1184 253 c-3 -18 -9 -55 -13 -83 l-7 -50 -113 -3 c-77 -2 -114 -6 -117 -15
-3 -7 -27 -158 -55 -337 -27 -179 -52 -335 -55 -347 -5 -22 -10 -23 -101 -23
l-96 0 6 28 c9 42 106 664 106 679 0 10 -25 13 -110 13 -64 0 -110 4 -110 10
0 5 5 43 11 85 l11 75 325 0 324 0 -6 -32z m753 -400 c62 -238 112 -439 112
-445 0 -10 -27 -13 -100 -13 l-99 0 -11 43 c-6 23 -18 66 -26 95 l-15 52 -189
0 -188 0 -53 -95 -54 -95 -103 0 c-61 0 -102 4 -100 9 2 6 116 206 253 445
l250 435 106 1 105 0 112 -432z m854 397 c144 -102 116 -337 -54 -447 -27 -17
-47 -37 -44 -44 4 -11 108 -179 190 -306 l37 -58 -113 0 -113 0 -109 180 -109
180 -42 0 -43 0 -28 -180 -28 -180 -96 0 -97 0 33 208 c19 114 50 314 71 445
l37 238 232 -3 232 -3 44 -30z m678 24 c0 -5 -5 -41 -11 -80 l-12 -69 -33 0
c-38 0 -30 29 -79 -285 -19 -126 -38 -242 -41 -257 -5 -26 -3 -28 27 -28 l32
0 -7 -57 c-13 -113 4 -103 -177 -103 -181 0 -166 -9 -148 97 11 63 11 63 45
63 19 0 34 4 34 9 0 13 79 509 85 539 5 20 2 22 -31 22 -32 0 -36 2 -31 23 3
12 9 45 13 72 3 28 8 53 11 58 7 12 323 9 323 -4z m679 -26 c5 -21 55 -213
111 -428 55 -214 103 -398 106 -407 5 -16 -4 -18 -99 -18 l-105 0 -21 83 c-12
45 -24 88 -26 95 -3 9 -51 12 -192 12 l-189 0 -54 -95 -55 -95 -103 0 -104 0
24 43 c61 107 462 804 474 825 14 20 21 22 119 22 l104 0 10 -37z"/>
<path d="M7722 11640 c-216 -45 -504 -379 -742 -865 -228 -464 -378 -965 -436
-1455 -25 -208 -25 -529 0 -633 29 -127 100 -188 201 -172 145 21 325 194 493
472 73 121 200 381 262 538 58 144 143 397 186 550 15 55 31 102 34 105 11 8
288 1011 293 1060 7 73 -11 218 -34 269 -22 51 -61 96 -99 116 -35 18 -107 25
-158 15z"/>
<path d="M14914 11640 c-206 -41 -473 -338 -705 -785 -236 -453 -402 -978
-470 -1484 -29 -215 -33 -595 -6 -690 25 -90 52 -130 105 -153 154 -68 370
100 588 459 71 117 194 369 262 538 61 152 164 461 198 592 10 39 21 70 24 68
3 -1 69 227 148 509 136 489 142 515 142 603 0 207 -57 316 -180 342 -28 6
-54 11 -58 10 -4 -1 -26 -5 -48 -9z"/>
<path d="M3415 6349 c-5 -15 -85 -515 -85 -532 0 -5 45 -8 113 -5 91 3 120 8
154 26 96 50 163 207 150 352 -6 70 -35 123 -80 147 -43 23 -244 32 -252 12z"/>
<path d="M8660 6228 c-12 -24 -45 -80 -71 -124 -27 -45 -49 -86 -49 -91 0 -4
50 -9 110 -9 66 -1 110 3 110 8 0 22 -64 258 -70 258 -3 0 -17 -19 -30 -42z"/>
<path d="M9460 6358 c0 -2 -5 -31 -10 -64 -6 -32 -13 -74 -16 -91 l-5 -33 91
0 c129 0 180 31 180 111 0 60 -25 73 -141 77 -54 2 -99 2 -99 0z"/>
<path d="M10927 6148 c-42 -72 -74 -134 -72 -138 5 -8 202 -6 210 2 6 6 -53
268 -60 268 -1 0 -36 -59 -78 -132z"/>
</g>
</svg>
